# xmcd
#
# Track frame offsets:
# 150
# 5474
# 22962
# 40526
# 56231
# 77282
# 99810
# 116304
# 137817
# 143914
# 160403
# 189917
# 234910
# 257538
#
# Disc length: 3619 seconds
#
#
# Revision: 0
# Processed by: cddbd v1.5.2PL0 Copyright (c) Steve Scherf et al.
# Submitted via: FreeRIP 2.951 
#
DISCID=9d0e210e
DTITLE=Território D - Mudando a História
DYEAR=2006
DGENRE=Rap Gospel
TTITLE0=Introdução
TTITLE1=Assim que tem que ser
TTITLE2=VENCER
TTITLE3=Revolucionário
TTITLE4=Mundo tipo ring
TTITLE5=Trairagem
TTITLE6=Lição de vida
TTITLE7=Evolução
TTITLE8=Interlúdio
TTITLE9=Apocalipse
TTITLE10=De rolê
TTITLE11=Minhas páginas
TTITLE12=Salvação
TTITLE13=VENCER (Remix)
EXTD=Banda Rap Gospel que toca em Portugal e na Espanha
EXTT0=
EXTT1=
EXTT2=
EXTT3=
EXTT4=
EXTT5=
EXTT6=
EXTT7=
EXTT8=
EXTT9=
EXTT10=
EXTT11=
EXTT12=
EXTT13=
PLAYORDER=
